<?xml version="1.0" standalone="no"?>
<!DOCTYPE svg PUBLIC "-//W3C//DTD SVG 20010904//EN"
 "http://www.w3.org/TR/2001/REC-SVG-20010904/DTD/svg10.dtd">
<svg version="1.0" xmlns="http://www.w3.org/2000/svg"
 width="300.000000pt" height="285.000000pt" viewBox="0 0 300.000000 285.000000"
 preserveAspectRatio="xMidYMid meet">
<metadata>
Created by potrace 1.10, written by Peter Selinger 2001-2011
</metadata>
<g transform="translate(0.000000,285.000000) scale(0.100000,-0.100000)"
fill="#FFFFFF" stroke="none">
<path d="M272 2698 c-11 -14 -33 -90 -53 -178 -6 -30 -18 -67 -25 -81 -44 -88
-67 -261 -46 -349 25 -104 56 -145 86 -115 19 19 46 19 46 0 0 -8 5 -15 10
-15 6 0 10 5 10 10 0 17 18 11 23 -7 3 -12 5 -10 6 7 1 20 3 22 11 10 5 -8 10
-27 10 -42 0 -15 5 -30 10 -33 6 -3 10 1 10 9 0 21 19 20 42 -1 39 -35 15 5
-31 51 -43 44 -48 53 -40 74 5 14 14 58 20 98 8 62 7 80 -9 129 l-19 56 -6
-37 c-4 -20 -2 -45 3 -55 13 -23 13 -78 -1 -154 -11 -66 -27 -99 -36 -77 -2 7
-12 20 -21 28 -20 20 -20 27 -24 191 -2 100 -6 133 -16 133 -10 0 -12 -25 -8
-112 3 -62 8 -134 12 -160 6 -41 4 -48 -10 -48 -10 0 -16 8 -16 23 0 13 -6 29
-12 36 -7 8 -8 11 -3 8 7 -4 10 40 8 130 -2 75 1 141 6 147 20 25 59 139 57
166 -1 16 2 27 6 24 4 -3 8 2 8 11 0 30 44 13 62 -25 15 -30 16 -45 7 -103
-11 -67 -8 -97 9 -97 11 0 32 106 32 164 0 51 -20 100 -45 109 -8 4 -15 14
-15 24 -1 17 -32 63 -43 63 -2 0 -9 -6 -15 -12z m-102 -550 c0 -28 -2 -49 -4
-47 -8 9 -13 99 -5 99 5 0 9 -23 9 -52z"/>
<path d="M410 2493 c0 -21 -3 -49 -6 -63 -5 -20 -4 -22 6 -10 9 12 10 -1 5
-55 -3 -38 -8 -81 -11 -95 -4 -16 -3 -21 3 -12 16 22 36 -32 30 -80 l-6 -43
16 28 c8 16 12 31 9 34 -3 3 -1 15 5 26 9 15 8 18 -2 12 -9 -6 -10 2 -4 36 15
85 15 187 -1 224 -20 48 -44 47 -44 -2z"/>
<path d="M316 2449 c-3 -17 -5 -46 -5 -63 1 -18 5 -7 10 28 9 63 6 88 -5 35z"/>
<path d="M487 2353 c-4 -34 -2 -59 3 -61 6 -2 10 -8 10 -14 0 -6 -6 -8 -12 -5
-10 3 -13 -14 -13 -70 0 -69 4 -69 19 -1 4 17 11 25 20 22 18 -7 56 -77 56
-103 0 -11 9 -35 20 -53 11 -18 20 -41 20 -50 0 -10 13 -43 29 -74 16 -32 27
-63 24 -70 -8 -21 37 -105 95 -179 52 -67 107 -168 103 -191 0 -6 8 -19 19
-29 11 -10 20 -25 20 -33 0 -8 11 -30 25 -47 13 -18 21 -35 18 -39 -4 -3 -1
-6 6 -6 8 0 11 -7 7 -15 -3 -9 1 -18 9 -21 8 -4 13 -10 10 -14 -3 -5 6 -17 19
-28 27 -21 86 -121 86 -145 0 -8 6 -20 14 -27 8 -6 13 -17 10 -25 -3 -7 -1
-16 5 -20 6 -3 11 -13 11 -22 0 -8 9 -28 20 -43 11 -16 19 -41 18 -57 -2 -31
7 -53 23 -53 6 0 7 20 3 53 -7 50 -6 51 11 37 17 -14 18 -13 12 2 -3 10 -2 20
3 23 4 3 11 -8 15 -25 4 -16 10 -30 13 -30 16 1 36 19 29 27 -5 4 -13 1 -18
-7 -9 -13 -10 -13 -6 1 3 9 0 22 -6 28 -9 9 -7 16 10 29 12 9 23 24 25 32 2 8
12 19 23 25 11 6 20 20 21 32 1 12 5 30 9 40 7 16 9 15 15 -7 9 -32 -9 -63
-63 -112 -35 -32 -38 -36 -17 -31 25 6 60 35 60 50 0 5 23 32 50 62 28 30 49
56 46 58 -2 2 -14 -8 -27 -22 -13 -13 -27 -25 -31 -25 -15 0 3 45 27 70 20 21
22 29 13 38 -10 10 -8 12 7 11 39 -4 53 1 58 21 6 25 -8 26 -22 3 -9 -16 -10
-16 -11 5 0 12 6 22 13 22 6 1 25 17 41 38 23 31 27 33 21 12 -4 -14 -12 -28
-17 -31 -5 -3 -8 -10 -7 -15 5 -27 -4 -52 -27 -79 -15 -18 -23 -23 -20 -12 5
15 2 16 -14 7 -11 -6 -20 -15 -20 -21 0 -6 5 -7 11 -3 6 3 15 0 20 -7 6 -10 9
-11 9 -1 0 6 7 12 15 12 7 0 19 8 25 18 9 15 10 14 8 -8 -2 -18 -8 -24 -23
-23 -11 1 -14 0 -7 -3 15 -7 6 -24 -11 -20 -7 1 -9 1 -4 -1 4 -3 5 -9 1 -14
-14 -23 17 -6 41 23 21 25 28 29 36 17 7 -11 9 -11 9 4 0 9 5 17 10 17 19 0
10 32 -10 37 -11 3 -20 10 -20 15 0 5 -5 6 -10 3 -5 -3 -10 -1 -10 4 0 6 9 11
21 11 18 0 19 2 5 15 -11 11 -13 21 -7 33 12 22 23 52 28 76 4 22 11 32 18 25
2 -3 0 -21 -5 -40 l-10 -34 19 25 c11 13 17 28 15 32 -3 4 5 8 18 8 17 0 19 3
9 9 -8 5 -9 11 -3 15 5 3 7 16 5 30 -4 18 0 26 15 30 11 4 22 16 25 27 3 11
11 19 19 18 23 -3 42 1 35 7 -10 11 56 64 93 74 19 6 41 10 47 10 7 0 12 6 10
13 -1 8 11 12 38 12 30 0 41 4 43 18 2 9 10 17 17 17 7 0 19 13 26 29 7 17 21
32 31 34 10 3 22 17 27 31 6 14 22 33 36 42 36 23 24 29 -17 8 -30 -15 -32
-15 -19 -1 19 24 5 21 -32 -7 -47 -34 -67 -42 -32 -13 40 34 90 63 80 47 -12
-19 31 -3 107 42 82 47 188 98 206 98 6 0 12 -4 12 -10 0 -5 -6 -10 -14 -10
-18 0 -232 -106 -240 -119 -10 -15 5 -14 29 2 11 8 74 35 140 61 66 26 131 52
143 57 18 7 23 6 20 -3 -3 -7 -38 -25 -79 -41 -197 -77 -213 -84 -282 -126
-43 -27 -43 -40 0 -18 36 18 287 107 302 107 28 0 -4 -20 -72 -46 -39 -15 -93
-38 -118 -51 -52 -26 -63 -28 -53 -12 4 7 1 10 -7 7 -8 -3 -13 -11 -11 -18 2
-8 -4 -11 -18 -7 -11 3 -18 1 -14 -4 3 -5 -2 -9 -10 -9 -9 0 -25 -9 -35 -19
-11 -11 -22 -17 -25 -14 -2 3 -15 -3 -28 -12 l-23 -17 29 6 c15 4 42 10 59 13
26 5 28 7 12 13 -15 5 8 16 84 39 57 18 113 34 125 37 11 2 37 7 56 10 39 8
90 54 90 82 0 10 18 33 40 51 46 37 52 54 14 45 -19 -5 -25 -4 -20 5 4 6 11
11 17 11 13 0 139 83 139 93 0 4 -5 7 -11 7 -13 0 -151 -74 -191 -102 -26 -18
-48 -17 -48 1 0 4 22 18 49 31 28 13 52 29 55 36 3 8 10 14 16 14 21 0 204
115 187 118 -14 3 -66 -23 -208 -104 -10 -6 -27 -18 -37 -27 -10 -10 -22 -17
-26 -17 -4 0 -21 -9 -38 -21 -16 -12 -32 -18 -36 -14 -4 3 2 11 12 17 10 6 26
18 35 27 10 9 29 23 44 31 14 8 65 47 114 87 48 39 99 81 113 91 14 11 22 23
18 27 -9 9 -80 -40 -231 -163 -71 -57 -131 -101 -133 -99 -3 2 11 18 31 35 19
17 35 36 35 42 0 5 7 10 15 10 8 0 64 48 125 106 99 96 128 132 100 122 -23
-8 -339 -313 -330 -318 6 -4 -6 -19 -28 -33 -39 -28 -72 -38 -38 -12 11 8 15
15 9 15 -7 0 -15 -4 -18 -10 -3 -5 -11 -10 -17 -10 -6 0 -5 6 3 16 7 8 21 13
30 11 10 -3 26 1 36 9 12 9 14 13 5 14 -8 0 16 32 53 72 70 76 215 264 215
279 0 5 -7 9 -15 9 -8 0 -15 -4 -15 -10 0 -16 -168 -227 -253 -316 -44 -46
-76 -84 -72 -84 4 0 2 -6 -4 -13 -6 -8 -8 -16 -5 -19 2 -3 -7 -8 -21 -10 l-26
-5 22 23 c12 13 19 24 14 24 -4 0 0 9 10 20 35 38 108 185 120 238 8 40 -12
45 -21 5 -8 -34 -76 -169 -120 -238 -40 -63 -122 -141 -244 -232 -52 -39 -117
-92 -145 -118 -27 -26 -83 -74 -124 -107 -66 -53 -181 -191 -181 -217 0 -5 -4
-11 -8 -13 -9 -3 -47 -51 -165 -207 -102 -134 -105 -137 -109 -121 -21 72 -63
188 -73 200 -7 8 -16 25 -19 37 -4 12 -17 30 -30 40 -12 10 -25 26 -29 36 -3
9 -11 17 -16 17 -5 0 -12 16 -15 35 -4 19 -19 49 -34 67 -15 17 -44 72 -64
120 -20 49 -53 107 -73 130 -19 23 -35 47 -35 54 0 8 -9 18 -20 24 -11 6 -20
16 -20 23 0 7 -9 29 -20 50 -11 20 -20 48 -20 63 0 28 -17 65 -34 76 -6 4 -11
25 -12 48 0 29 -8 48 -26 67 -14 16 -23 34 -21 40 8 21 -17 82 -39 97 -16 11
-19 22 -16 48 9 55 -23 137 -53 138 -3 0 -9 -26 -12 -57z m1833 -343 c0 -5 -6
-10 -12 -10 -7 0 -47 -20 -88 -44 -41 -24 -77 -42 -80 -39 -3 2 2 8 10 13 8 5
24 16 35 25 17 14 18 16 2 11 -11 -4 -16 -2 -12 5 4 5 14 8 23 5 10 -3 37 6
62 19 51 27 60 29 60 15z m-408 -246 c-28 -20 -28 -33 1 -27 18 4 19 3 7 -6
-8 -6 -23 -8 -33 -5 -10 3 -19 -1 -23 -10 -3 -9 -14 -16 -23 -16 -10 0 2 17
34 45 27 24 51 42 54 39 3 -2 -5 -11 -17 -20z m52 -36 c-3 -7 -35 -26 -72 -42
-37 -16 -73 -34 -81 -40 -7 -6 -30 -16 -50 -23 -32 -11 -34 -10 -17 3 11 7 28
14 38 14 10 0 18 6 18 14 0 13 18 25 45 31 6 2 33 14 60 27 60 30 66 32 59 16z"/>
<path d="M367 2322 c1 -8 4 -28 4 -45 l1 -32 8 30 c11 44 12 73 1 56 -5 -7
-11 -9 -13 -5 -3 5 -3 3 -1 -4z"/>
<path d="M266 2290 c-9 -53 -7 -90 4 -90 6 0 10 -33 10 -80 0 -129 27 -91 31
45 4 128 0 161 -20 161 -14 0 -21 -10 -25 -36z"/>
<path d="M394 2222 c4 -11 -2 -62 -14 -113 -23 -108 -23 -102 -11 -94 5 3 11
-2 13 -12 2 -9 3 14 4 51 0 37 5 71 11 74 14 10 16 99 2 108 -7 4 -9 0 -5 -14z"/>
<path d="M400 2079 c-6 -23 -9 -44 -6 -47 3 -3 9 9 12 27 4 17 11 34 15 37 12
7 11 24 -1 24 -5 0 -14 -18 -20 -41z"/>
<path d="M195 1937 c3 -12 21 -78 40 -147 18 -69 40 -141 49 -160 8 -19 17
-46 20 -60 3 -14 22 -43 42 -65 88 -96 259 -394 303 -529 12 -33 27 -95 35
-137 18 -92 34 -132 75 -183 17 -22 30 -40 29 -42 -2 -1 -27 4 -56 11 -29 8
-68 12 -85 10 -18 -3 -26 -3 -20 1 19 8 16 24 -4 25 -14 0 -13 2 5 9 12 5 22
14 22 20 0 5 6 10 14 10 8 0 16 7 20 15 4 12 0 14 -22 9 -38 -9 -64 -37 -68
-74 -5 -42 2 -51 31 -40 17 6 37 5 66 -5 23 -8 66 -15 96 -15 45 0 65 -6 120
-40 37 -22 74 -40 83 -40 9 0 33 -9 55 -20 32 -17 51 -19 102 -14 35 4 63 10
63 14 0 4 12 10 28 13 15 3 39 9 53 12 l26 7 -3 -79 c-4 -93 16 -146 68 -186
31 -24 38 -25 72 -16 29 8 44 21 64 54 18 30 32 43 43 39 22 -6 36 15 37 55 0
19 6 37 12 41 13 8 1 20 -47 44 -31 15 -33 20 -33 69 0 52 -1 53 -36 66 -19 7
-38 10 -41 8 -3 -3 -14 3 -26 13 -27 26 -130 61 -195 67 -49 5 -52 6 -52 32 0
37 5 40 47 31 27 -6 40 -5 51 6 13 13 12 17 -4 29 -35 26 81 18 161 -11 39
-14 80 -27 93 -27 12 -1 22 -5 22 -9 0 -35 202 -83 370 -87 47 -1 89 -6 94
-12 6 -6 3 -9 -8 -9 -12 0 -16 -5 -12 -15 6 -17 -66 -54 -106 -56 -13 0 -32
-4 -43 -8 -15 -6 -9 -9 25 -14 32 -4 48 -2 55 7 6 8 22 16 35 18 31 4 83 77
68 95 -6 7 -14 11 -18 8 -12 -8 -230 14 -310 31 -41 9 -82 16 -91 16 -9 0 -27
10 -40 24 -20 22 -21 25 -7 41 8 10 14 23 11 29 -2 6 18 31 44 55 64 60 133
133 133 140 0 4 16 24 35 45 19 22 35 41 35 44 0 3 36 43 80 90 44 47 80 91
80 99 0 8 22 38 50 67 27 29 50 59 50 67 0 7 11 24 24 36 14 13 22 29 19 37
-3 8 27 45 76 93 50 49 81 87 81 100 0 13 14 30 34 43 62 41 51 92 -12 58 -18
-10 -29 -20 -23 -22 5 -1 3 -9 -4 -15 -11 -10 -17 -10 -29 3 -9 8 -16 11 -16
5 0 -5 7 -16 15 -25 14 -13 13 -17 -6 -35 -12 -11 -26 -18 -31 -15 -4 3 -8 2
-8 -3 0 -4 -54 -8 -120 -8 -77 0 -123 -4 -131 -12 -9 -9 19 -10 114 -6 128 6
192 -3 132 -17 -16 -4 -52 -9 -80 -10 -51 -2 -49 -4 20 -15 35 -6 37 -8 20
-18 -11 -6 -26 -19 -33 -29 -12 -16 -22 -18 -60 -12 -26 3 -51 10 -56 15 -6 5
-25 9 -43 9 -18 0 -33 3 -33 8 0 4 -14 13 -31 21 -26 11 -41 11 -85 2 -30 -7
-52 -17 -49 -22 4 -5 -1 -9 -9 -9 -8 0 -17 -3 -20 -8 -2 -4 29 -6 71 -4 69 4
75 3 80 -17 4 -17 13 -21 47 -21 33 1 37 3 23 11 -9 5 -22 7 -27 4 -5 -3 -21
5 -35 19 -19 19 -37 26 -68 27 -36 1 -38 2 -17 9 41 13 59 11 79 -9 10 -10 38
-21 62 -24 114 -14 202 -46 128 -48 -18 0 -28 -3 -21 -6 29 -11 0 -69 -80
-156 -21 -23 -38 -45 -38 -49 0 -5 0 -10 -1 -12 0 -3 -17 -22 -37 -43 -91 -94
-147 -166 -144 -187 2 -17 0 -18 -8 -6 -9 13 -12 12 -23 -5 -6 -11 -12 -27
-12 -35 0 -8 -5 -15 -11 -15 -7 0 -24 -13 -40 -28 -34 -34 -48 -23 -40 30 7
37 50 96 77 105 9 3 9 9 1 24 -8 14 -11 15 -12 4 0 -8 -15 -31 -33 -50 -18
-19 -41 -53 -51 -74 -17 -36 -17 -40 -2 -48 10 -6 16 -21 15 -41 l-1 -32 -15
36 c-14 36 -15 36 -61 31 -42 -5 -46 -3 -34 10 7 9 11 20 10 24 -2 5 2 9 7 9
6 0 9 -6 9 -13 -2 -17 38 -12 44 5 2 7 -5 16 -15 20 -32 12 -32 27 -1 55 35
31 53 36 44 13 -3 -9 0 -15 9 -15 19 0 19 27 0 46 -26 26 -16 39 11 14 21 -21
27 -22 34 -10 14 21 12 30 -4 30 -11 0 -33 30 -24 34 2 1 13 6 25 13 17 10 23
10 26 0 3 -7 6 -4 6 6 1 9 6 17 11 17 21 0 9 28 -15 34 -47 12 -28 28 26 22
36 -4 55 -1 65 8 11 12 11 15 -1 20 -8 3 -15 12 -15 21 0 9 -10 16 -25 17 -14
0 -31 1 -37 2 -7 1 -14 -8 -16 -19 -5 -25 -31 -55 -49 -55 -7 0 -13 -9 -13
-20 0 -11 -4 -20 -9 -20 -5 0 -8 11 -8 24 0 19 7 28 29 35 24 8 29 15 25 31
-3 11 -1 20 4 20 5 0 9 7 9 15 0 13 9 15 41 11 44 -6 69 -21 69 -42 0 -18 14
-18 29 0 10 11 8 16 -8 21 -10 3 -22 12 -25 20 -3 8 -17 15 -31 15 -14 0 -25
5 -25 11 0 8 13 9 40 5 31 -5 40 -3 40 8 0 8 -14 15 -36 18 -30 4 -38 0 -47
-19 -11 -26 -15 -27 -37 -13 -13 8 -11 11 7 16 19 5 22 12 18 44 -4 39 13 58
37 44 6 -4 8 -1 4 7 -3 8 -9 22 -12 32 -8 21 -24 22 -24 1 0 -12 -7 -15 -29
-12 -17 2 -28 1 -25 -3 2 -4 -7 -19 -22 -32 -28 -26 -21 -40 15 -30 16 4 20
10 15 25 -4 15 -2 19 7 16 20 -6 24 -48 6 -48 -18 0 -67 -39 -49 -40 6 0 12 4
12 9 0 10 50 25 58 17 2 -3 -8 -10 -23 -16 -15 -6 -25 -13 -21 -17 3 -3 -1
-15 -11 -25 -15 -17 -15 -18 3 -18 17 0 16 -2 -4 -16 -12 -8 -22 -21 -22 -29
0 -7 -9 -16 -19 -20 -11 -3 -18 -12 -15 -19 3 -8 -5 -21 -18 -30 -12 -9 -18
-17 -13 -17 22 -4 41 -6 58 -8 9 0 17 -7 17 -15 0 -23 -27 -38 -76 -42 -46 -4
-115 -46 -94 -59 5 -3 10 -1 10 4 0 6 6 11 14 11 8 0 16 7 20 15 3 8 10 15 16
15 21 0 -12 -42 -41 -54 -17 -6 -27 -16 -25 -23 3 -7 1 -15 -4 -18 -10 -6 -14
8 -11 34 2 8 -2 10 -10 5 -9 -5 -10 -2 -6 9 5 13 0 12 -29 -5 -35 -21 -45 -32
-19 -22 18 7 20 -12 3 -20 -10 -5 -10 -7 0 -12 6 -3 10 -10 6 -15 -3 -5 0 -9
5 -9 6 0 11 -5 11 -11 0 -8 -15 -10 -46 -6 -42 4 -44 4 -24 -10 11 -8 36 -13
57 -11 24 2 38 -2 41 -11 3 -10 0 -12 -12 -8 -37 15 -4 -10 58 -43 36 -19 66
-40 66 -47 0 -15 -26 -17 -35 -3 -3 6 -10 10 -16 10 -12 0 11 -41 34 -58 32
-24 17 -34 -18 -12 -40 24 -48 10 -12 -22 22 -20 22 -20 -13 0 -19 11 -39 20
-43 20 -5 0 -11 3 -14 6 -4 3 3 6 14 6 22 0 50 26 40 37 -4 3 -13 0 -22 -7 -8
-7 -15 -8 -15 -2 0 5 7 15 15 22 8 7 15 18 15 25 0 16 -59 45 -77 38 -7 -3
-13 1 -13 10 0 8 -7 18 -16 21 -23 9 -26 8 -18 -6 22 -35 0 -88 -35 -88 -13 0
-14 -2 -2 -9 11 -7 10 -10 -5 -14 -10 -2 0 -4 24 -4 32 -1 42 3 43 16 1 9 2
25 3 36 0 13 9 21 24 23 20 3 22 -1 22 -41 l0 -44 -77 -7 c-68 -5 -78 -4 -95
14 -10 11 -24 20 -30 20 -17 0 3 16 29 25 19 5 22 3 16 -11 -4 -12 -2 -15 8
-12 8 3 14 13 14 24 0 14 7 19 26 17 23 -1 25 2 20 30 -3 18 -6 25 -8 16 -5
-20 -55 -49 -87 -49 -14 0 -26 -4 -26 -9 0 -5 -3 -16 -6 -24 -3 -10 2 -18 15
-22 11 -3 20 -9 20 -13 -1 -4 -1 -9 1 -12 1 -3 3 -15 6 -28 3 -20 2 -21 -16
-12 -11 6 -20 18 -20 26 0 20 -35 66 -44 57 -3 -4 0 -13 7 -22 8 -9 17 -25 21
-36 6 -16 5 -18 -5 -7 -7 6 -22 12 -34 12 -12 0 -26 5 -33 12 -9 9 -12 9 -12
0 0 -18 -35 -14 -60 6 -18 14 -33 17 -71 12 -31 -4 -50 -2 -54 4 -2 6 -3 2 -2
-9 2 -11 9 -19 15 -17 9 1 10 -6 6 -25 -7 -27 -26 -53 -38 -53 -10 0 -6 38 4
43 6 3 5 4 -2 3 -7 -1 -15 -13 -16 -27 -5 -32 -22 -50 -22 -22 0 12 -6 23 -12
26 -9 3 -7 9 6 19 14 11 16 17 7 22 -7 5 -20 -3 -33 -19 -15 -19 -24 -23 -31
-16 -26 26 -22 8 4 -20 29 -31 34 -57 10 -52 -21 5 -11 -5 19 -21 17 -8 30
-10 30 -5 0 5 -4 9 -10 9 -5 0 -10 10 -10 23 0 13 -5 28 -12 35 -9 9 -8 12 5
12 10 0 17 -8 17 -19 0 -10 8 -29 18 -41 l17 -22 29 26 c15 15 35 25 44 24 9
-2 22 8 30 24 13 27 14 28 49 13 19 -8 38 -15 40 -15 3 0 3 -7 -1 -15 -8 -22
10 -18 27 5 13 19 60 24 54 5 -2 -5 -12 -9 -22 -7 -17 3 -17 2 -1 -13 9 -9 13
-21 10 -26 -3 -6 -11 -3 -18 7 -10 13 -15 14 -20 5 -11 -17 -1 -25 34 -27 15
-1 33 -5 38 -8 5 -3 29 -6 53 -7 41 -2 44 -4 46 -31 4 -53 -12 -74 -68 -92
-28 -10 -68 -17 -88 -18 -52 0 -168 40 -187 65 -11 15 -18 18 -21 10 -3 -9
-11 -6 -26 8 -12 11 -35 23 -52 27 -19 5 -43 26 -67 57 -35 47 -36 50 -23 82
13 30 12 33 -3 33 -15 1 -15 2 2 15 11 8 17 18 13 21 -4 4 -13 1 -22 -6 -9 -8
-15 -8 -15 -2 0 6 5 14 10 17 6 3 9 32 8 64 -3 49 -6 57 -22 57 -15 -1 -39 39
-110 179 -50 99 -119 222 -154 272 -34 51 -62 97 -62 102 0 6 -6 14 -12 18
-18 12 -38 49 -38 73 0 11 -4 20 -9 20 -5 0 -13 10 -17 22 -3 12 -16 30 -28
39 -11 10 -18 21 -13 25 4 4 14 -1 22 -12 8 -10 15 -14 15 -8 0 5 -7 19 -15
30 -8 10 -15 38 -15 62 0 30 -4 42 -15 42 -8 0 -15 5 -15 11 0 5 5 7 11 3 6
-3 4 5 -5 19 -16 24 -16 26 5 40 24 17 19 53 -6 44 -7 -3 -28 -2 -45 3 -30 9
-32 8 -25 -13z m1534 -618 c17 -6 31 -17 31 -25 0 -19 -16 -18 -24 1 -3 8 -12
15 -20 15 -8 0 -18 5 -21 10 -8 13 -5 12 34 -1z m-139 -172 c0 -7 -11 -23 -25
-35 -14 -12 -25 -25 -25 -30 0 -4 -16 -16 -35 -26 -32 -17 -33 -20 -17 -33 16
-12 15 -14 -7 -33 -31 -26 -33 -25 -52 15 -16 35 -16 35 7 35 13 0 32 8 42 18
10 10 26 21 35 25 9 3 17 13 17 21 0 8 9 18 20 21 11 3 20 13 20 21 0 8 5 14
10 14 6 0 10 -6 10 -13z m-82 -208 c23 -18 27 -19 30 -5 6 27 18 18 30 -23 15
-47 15 -61 2 -61 -5 0 -10 8 -10 18 0 12 -18 29 -50 46 -27 15 -52 31 -55 36
-11 18 27 10 53 -11z m-777 -36 c11 -20 11 -27 2 -30 -7 -3 -13 -11 -13 -19 0
-8 -3 -14 -7 -14 -5 0 -8 20 -9 45 -1 51 6 57 27 18z m289 -83 c0 -19 83 -47
124 -42 27 3 37 1 32 -7 -4 -6 -20 -11 -35 -11 -15 0 -32 -5 -39 -12 -9 -9
-12 -8 -13 8 0 10 -3 13 -6 6 -3 -9 -11 -7 -29 7 -32 25 -47 22 -94 -23 -45
-43 -53 -32 -14 19 14 19 23 38 20 44 -4 5 2 12 11 14 31 8 43 7 43 -3z m341
-181 c21 -21 18 -56 -5 -71 -8 -5 -8 -13 1 -27 10 -15 10 -21 0 -24 -7 -3 -2
-6 11 -6 13 -1 20 3 17 9 -4 6 5 10 19 10 14 0 26 -3 26 -8 0 -12 -40 -33 -50
-27 -6 4 -10 -3 -10 -14 0 -12 5 -21 11 -21 5 0 7 5 4 10 -3 6 1 10 9 10 9 0
16 -6 16 -12 0 -7 8 3 18 22 9 19 14 36 10 38 -4 2 -4 10 -2 17 5 11 -1 12
-28 5 -48 -14 -53 -12 -33 10 10 12 25 18 34 15 8 -3 17 -1 21 4 4 7 18 7 43
-1 43 -13 49 -29 10 -24 -16 2 -20 1 -10 -1 9 -2 17 -9 17 -14 0 -6 4 -8 9 -5
5 4 7 -3 4 -14 -3 -11 0 -20 6 -20 5 0 8 -6 6 -12 -3 -7 10 -20 28 -28 20 -10
33 -23 35 -39 4 -27 -12 -41 -49 -41 -21 0 -28 -6 -32 -27 l-5 -28 19 24 c28
34 23 6 -6 -37 -14 -20 -25 -31 -25 -24 0 9 -7 11 -21 7 -18 -6 -20 -4 -14 14
3 12 3 21 -2 21 -5 0 -9 -10 -10 -21 -1 -12 -6 -26 -12 -32 -7 -7 -8 -3 -4 12
3 11 0 28 -7 35 -18 23 5 56 40 56 15 0 31 -6 33 -12 3 -8 6 -7 6 4 1 23 -13
30 -65 32 -39 1 -43 -1 -38 -18 6 -18 6 -18 -20 0 -14 11 -26 23 -26 29 0 5 5
4 12 -3 8 -8 16 -6 30 10 10 12 16 24 13 27 -4 3 -9 1 -13 -5 -4 -6 -20 -13
-35 -16 -22 -4 -27 -2 -23 9 3 8 6 22 6 31 0 15 2 15 10 2 8 -12 10 -11 10 7
0 12 -12 34 -26 50 -17 19 -23 34 -19 48 3 11 7 27 8 35 1 8 7 18 12 22 6 5 5
8 -2 8 -7 0 -13 5 -13 10 0 17 29 11 51 -11z"/>
<path d="M1475 461 c-11 -5 -26 -6 -34 -3 -10 4 -12 1 -6 -8 6 -10 4 -12 -9
-7 -10 4 -15 3 -11 -3 3 -6 1 -10 -4 -10 -20 0 -11 -16 9 -17 11 -1 18 2 15 7
-3 6 1 7 9 4 11 -4 16 0 16 10 0 11 9 16 30 16 17 0 30 -5 30 -13 0 -14 35
-39 44 -30 10 10 7 25 -3 18 -5 -3 -12 -1 -16 5 -3 5 0 10 7 10 9 1 9 3 -2 9
-27 15 -55 20 -75 12z"/>
<path d="M287 1891 c-6 -25 2 -34 19 -20 8 6 21 9 29 5 18 -7 20 5 3 22 -18
18 -45 14 -51 -7z"/>
<path d="M454 1803 c7 -74 15 -91 37 -86 21 6 27 -12 7 -20 -8 -3 -5 -6 6 -6
13 -1 17 -6 13 -20 -3 -12 1 -22 9 -25 8 -3 14 -11 14 -18 0 -8 13 -18 29 -24
21 -9 29 -18 29 -38 0 -17 9 -34 26 -47 20 -16 24 -25 16 -33 -7 -7 -17 -3
-34 17 -13 15 -27 27 -31 27 -8 0 72 -92 89 -102 8 -4 13 -1 13 7 0 8 -6 15
-13 15 -14 0 -29 19 -21 26 8 8 49 -16 81 -48 15 -16 31 -27 33 -24 3 3 -27
37 -66 76 -39 39 -70 74 -70 78 4 26 -4 42 -24 47 -32 9 -57 53 -46 83 5 13
13 21 18 17 5 -3 13 0 17 6 5 9 -1 10 -21 5 -37 -9 -78 17 -70 45 4 12 1 21
-9 25 -10 4 -16 18 -16 35 0 16 -5 29 -11 29 -6 0 -8 -18 -5 -47z"/>
<path d="M526 1826 c-27 -24 -32 -36 -18 -36 5 0 18 14 30 30 27 36 22 38 -12
6z"/>
<path d="M1920 1629 c-11 -7 1 -8 40 -3 30 3 57 8 59 10 10 9 -85 3 -99 -7z"/>
<path d="M1751 1533 c21 -27 32 -33 61 -33 14 0 29 -6 31 -12 3 -7 6 -3 6 10
1 22 -1 23 -64 26 -11 1 -19 7 -17 14 1 6 -5 12 -14 12 -14 0 -15 -2 -3 -17z"/>
<path d="M1810 1540 c36 -12 60 -12 60 0 0 6 -19 10 -42 9 -37 -1 -39 -2 -18
-9z"/>
<path d="M1875 1510 c10 -16 -56 -73 -69 -60 -5 5 -23 10 -40 10 -16 0 -27 3
-23 6 3 3 22 6 41 6 20 0 36 4 36 9 0 19 -60 8 -87 -16 l-28 -24 46 -1 c55 0
76 -18 60 -49 -15 -27 -16 -26 29 -26 35 0 38 2 23 13 -9 6 -20 12 -24 12 -4
0 -7 9 -6 20 1 17 6 19 41 13 28 -4 37 -3 32 5 -4 7 -16 12 -26 12 -29 0 -32
16 -6 30 14 7 38 10 57 6 l34 -6 -34 13 c-19 7 -37 19 -39 25 -2 7 -8 12 -13
12 -6 0 -7 -5 -4 -10z"/>
<path d="M1603 1390 c-14 -6 -24 -21 -29 -45 -3 -19 -11 -38 -17 -42 -6 -4 -8
2 -5 15 4 12 2 22 -3 22 -5 0 -9 -6 -9 -14 0 -8 -6 -17 -12 -19 -8 -3 -6 -6 5
-6 20 -1 22 -21 5 -40 -11 -10 -9 -12 7 -9 12 2 21 13 23 26 2 12 10 22 18 22
17 0 19 20 2 20 -7 0 -4 7 7 16 11 8 19 20 17 26 -1 6 5 16 15 24 20 15 9 17
-24 4z"/>
<path d="M754 1327 c1 -21 11 -37 35 -56 22 -16 33 -21 29 -11 -2 8 -14 19
-26 25 -25 11 -30 42 -7 47 10 2 8 6 -9 14 -22 10 -23 9 -22 -19z"/>
<path d="M1736 1247 c3 -8 -2 -21 -10 -30 -18 -18 -21 -37 -6 -37 6 0 9 5 8
12 -2 7 7 17 20 23 27 12 28 21 2 35 -15 8 -18 8 -14 -3z"/>
<path d="M769 965 c-7 -58 -7 -66 4 -62 7 2 11 11 9 21 -3 19 9 21 26 4 6 -6
14 -9 18 -6 3 4 -5 12 -18 19 -12 6 -26 17 -30 23 -5 7 -8 7 -9 1z"/>
<path d="M955 894 c21 -8 42 -20 46 -26 5 -7 11 -9 15 -6 9 10 -57 48 -81 47
-12 0 -4 -6 20 -15z"/>
<path d="M1059 678 c0 -7 -2 -21 -4 -31 -2 -9 1 -15 6 -11 5 3 9 12 9 20 0 8
5 14 10 14 6 0 10 5 10 10 0 15 -30 12 -31 -2z"/>
<path d="M1572 575 c12 -12 115 -47 142 -49 45 -2 41 18 -6 32 -24 7 -49 16
-57 19 -9 3 -11 1 -7 -6 4 -6 3 -11 -3 -11 -5 0 -13 5 -16 10 -3 6 -18 10 -32
10 -15 0 -24 -2 -21 -5z"/>
<path d="M1773 545 c0 -10 8 -15 21 -13 12 2 21 8 21 13 0 6 -9 11 -21 13 -13
2 -21 -3 -21 -13z"/>
</g>
</svg>
